<svg width="20" height="21" viewBox="0 0 20 21" fill="none" xmlns="http://www.w3.org/2000/svg">
<path d="M9.4 17.2405L13.75 8.63293H10.75V3.06331L6.25 11.6709H9.4V17.2405ZM10 20.2785C8.61667 20.2785 7.31667 20.0127 6.1 19.481C4.88333 18.9494 3.825 18.2279 2.925 17.3165C2.025 16.4051 1.3125 15.3334 0.7875 14.1013C0.2625 12.8692 0 11.5528 0 10.1519C0 8.75107 0.2625 7.43462 0.7875 6.20255C1.3125 4.97048 2.025 3.89875 2.925 2.98736C3.825 2.07596 4.88333 1.35444 6.1 0.822798C7.31667 0.291153 8.61667 0.0253296 10 0.0253296C11.3833 0.0253296 12.6833 0.291153 13.9 0.822798C15.1167 1.35444 16.175 2.07596 17.075 2.98736C17.975 3.89875 18.6875 4.97048 19.2125 6.20255C19.7375 7.43462 20 8.75107 20 10.1519C20 11.5528 19.7375 12.8692 19.2125 14.1013C18.6875 15.3334 17.975 16.4051 17.075 17.3165C16.175 18.2279 15.1167 18.9494 13.9 19.481C12.6833 20.0127 11.3833 20.2785 10 20.2785ZM10 18.2532C12.2333 18.2532 14.125 17.4684 15.675 15.8988C17.225 14.3291 18 12.4135 18 10.1519C18 7.89031 17.225 5.9747 15.675 4.40508C14.125 2.83546 12.2333 2.05065 10 2.05065C7.76667 2.05065 5.875 2.83546 4.325 4.40508C2.775 5.9747 2 7.89031 2 10.1519C2 12.4135 2.775 14.3291 4.325 15.8988C5.875 17.4684 7.76667 18.2532 10 18.2532Z" fill="black"/>
</svg>
