<svg width="20" height="17" viewBox="0 0 20 17" fill="none" xmlns="http://www.w3.org/2000/svg">
<path d="M4 16.2532C2.9 16.2532 1.95833 15.8566 1.175 15.0633C0.391667 14.2701 0 13.3165 0 12.2026V4.10129C0 2.98737 0.391667 2.03378 1.175 1.24053C1.95833 0.447284 2.9 0.0506592 4 0.0506592H16C17.1 0.0506592 18.0417 0.447284 18.825 1.24053C19.6083 2.03378 20 2.98737 20 4.10129V12.2026C20 13.3165 19.6083 14.2701 18.825 15.0633C18.0417 15.8566 17.1 16.2532 16 16.2532H4ZM4 4.10129H16C16.3667 4.10129 16.7167 4.14349 17.05 4.22787C17.3833 4.31226 17.7 4.44728 18 4.63294V4.10129C18 3.54433 17.8042 3.06754 17.4125 2.67091C17.0208 2.27429 16.55 2.07598 16 2.07598H4C3.45 2.07598 2.97917 2.27429 2.5875 2.67091C2.19583 3.06754 2 3.54433 2 4.10129V4.63294C2.3 4.44728 2.61667 4.31226 2.95 4.22787C3.28333 4.14349 3.63333 4.10129 4 4.10129ZM2.15 7.39243L13.275 10.1266C13.425 10.1604 13.575 10.1604 13.725 10.1266C13.875 10.0929 14.0167 10.0253 14.15 9.92408L17.625 6.98737C17.4417 6.7342 17.2083 6.52745 16.925 6.36711C16.6417 6.20678 16.3333 6.12661 16 6.12661H4C3.56667 6.12661 3.1875 6.24053 2.8625 6.46838C2.5375 6.69623 2.3 7.00424 2.15 7.39243Z" fill="#535353" fill-opacity="0.7"/>
</svg>
